<?xml version="1.0" standalone="no"?>
<!DOCTYPE svg PUBLIC "-//W3C//DTD SVG 20010904//EN"
 "http://www.w3.org/TR/2001/REC-SVG-20010904/DTD/svg10.dtd">
<svg version="1.0" xmlns="http://www.w3.org/2000/svg"
 width="360.000000pt" height="360.000000pt" viewBox="0 0 360.000000 360.000000"
 preserveAspectRatio="xMidYMid meet">
<metadata>
Created by potrace 1.11, written by Peter Selinger 2001-2013
</metadata>
<g transform="translate(0.000000,360.000000) scale(0.100000,-0.100000)"
fill="#000000" stroke="none">
<path d="M1260 3309 c-146 -13 -294 -67 -413 -153 -70 -49 -208 -189 -253
-256 -34 -50 -55 -89 -27 -50 68 94 151 185 224 243 81 66 232 149 294 162 17
4 -6 -9 -50 -27 -86 -36 -172 -91 -247 -157 -55 -49 -160 -185 -188 -245 -22
-44 -16 -37 42 53 118 183 318 324 516 366 38 8 115 14 177 13 l110 -1 -94 -8
c-208 -19 -355 -83 -486 -215 -55 -55 -156 -194 -141 -194 2 0 25 31 51 70
143 215 418 343 670 312 l60 -8 -75 -6 c-90 -7 -185 -38 -260 -83 -59 -36
-160 -129 -160 -148 0 -6 24 12 53 40 147 145 365 203 555 148 34 -10 65 -15
69 -12 7 8 18 107 11 107 -3 0 -40 9 -84 20 -95 25 -251 37 -354 29z m18 -26
c-10 -2 -28 -2 -40 0 -13 2 -5 4 17 4 22 1 32 -1 23 -4z m160 0 c-10 -2 -26
-2 -35 0 -10 3 -2 5 17 5 19 0 27 -2 18 -5z m-245 -10 c-7 -2 -19 -2 -25 0 -7
3 -2 5 12 5 14 0 19 -2 13 -5z m-46 -9 c-3 -3 -12 -4 -19 -1 -8 3 -5 6 6 6 11
1 17 -2 13 -5z"/>
<path d="M2070 3299 c-25 -5 -74 -17 -109 -26 l-63 -16 4 -49 c3 -26 8 -51 11
-55 4 -3 32 1 64 10 210 57 413 2 571 -154 23 -23 42 -37 42 -31 0 18 -102
112 -160 147 -74 45 -167 75 -259 83 l-76 8 70 7 c83 8 210 -5 280 -28 152
-51 297 -160 380 -285 26 -39 49 -70 51 -70 16 0 -83 135 -142 194 -134 134
-275 196 -485 215 l-94 8 110 1 c62 1 139 -5 177 -13 204 -43 392 -179 521
-375 58 -89 66 -99 39 -44 -35 68 -138 199 -199 251 -87 74 -150 114 -238 151
-44 18 -66 31 -50 27 62 -13 213 -96 294 -162 73 -58 156 -149 224 -243 28
-39 7 0 -27 50 -45 67 -183 207 -253 256 -82 59 -193 110 -295 134 -90 22
-301 26 -388 9z m128 -16 c-10 -2 -26 -2 -35 0 -10 3 -2 5 17 5 19 0 27 -2 18
-5z m170 0 c-10 -2 -28 -2 -40 0 -13 2 -5 4 17 4 22 1 32 -1 23 -4z m65 -10
c-7 -2 -19 -2 -25 0 -7 3 -2 5 12 5 14 0 19 -2 13 -5z m44 -9 c-3 -3 -12 -4
-19 -1 -8 3 -5 6 6 6 11 1 17 -2 13 -5z"/>
<path d="M530 2800 c-6 -11 -8 -20 -6 -20 3 0 10 9 16 20 6 11 8 20 6 20 -3 0
-10 -9 -16 -20z"/>
<path d="M3060 2800 c6 -11 13 -20 16 -20 2 0 0 9 -6 20 -6 11 -13 20 -16 20
-2 0 0 -9 6 -20z"/>
<path d="M556 2743 c-6 -14 -5 -15 5 -6 7 7 10 15 7 18 -3 3 -9 -2 -12 -12z"/>
<path d="M3030 2755 c0 -5 5 -17 10 -25 5 -8 10 -10 10 -5 0 6 -5 17 -10 25
-5 8 -10 11 -10 5z"/>
<path d="M1061 2365 c-148 -33 -291 -129 -372 -248 l-44 -66 -167 -1 -166 0
-9 -67 c-18 -153 -5 -412 28 -535 l10 -38 169 0 c164 0 169 -1 184 -22 42 -60
135 -140 206 -178 101 -52 175 -71 286 -71 177 -1 308 55 442 188 l83 83 89 0
89 0 83 -83 c132 -131 265 -188 438 -188 176 0 323 64 444 192 l74 79 166 0
165 0 10 38 c33 123 46 382 28 535 l-9 67 -166 0 -167 1 -44 66 c-83 123 -226
216 -381 249 -140 30 -309 0 -437 -78 -68 -41 -165 -136 -199 -194 l-26 -44
-68 0 -68 0 -30 48 c-38 62 -128 149 -196 190 -126 77 -308 108 -445 77z m254
-120 c243 -64 403 -307 367 -560 -58 -409 -558 -576 -846 -282 -198 202 -195
509 6 714 119 121 306 171 473 128z m1220 0 c263 -69 428 -348 360 -609 -66
-253 -302 -414 -553 -377 -220 32 -392 205 -424 426 -35 250 123 495 363 559
72 19 181 20 254 1z"/>
<path d="M1074 2017 c-58 -28 -114 -82 -140 -135 -11 -22 -20 -67 -22 -113 -5
-99 20 -161 90 -224 89 -80 208 -96 316 -41 103 52 158 154 150 275 -6 75 -23
114 -75 172 -53 59 -104 82 -193 86 -64 3 -83 0 -126 -20z m21 -137 c0 -18 -6
-26 -23 -28 -24 -4 -38 18 -28 44 3 9 15 14 28 12 17 -2 23 -10 23 -28z"/>
<path d="M2300 2019 c-99 -44 -160 -132 -168 -240 -6 -85 16 -152 67 -211 173
-196 491 -75 491 187 0 119 -59 212 -165 261 -66 31 -161 32 -225 3z m15 -139
c0 -18 -6 -26 -23 -28 -24 -4 -38 18 -28 44 3 9 15 14 28 12 17 -2 23 -10 23
-28z"/>
</g>
</svg>
